<svg width="20" height="20" viewBox="0 0 20 20" fill="none" xmlns="http://www.w3.org/2000/svg">
<path d="M10 0C8.61667 0 7.31667 0.262501 6.1 0.7875C4.88333 1.3125 3.825 2.025 2.925 2.925C2.025 3.825 1.3125 4.88333 0.7875 6.1C0.2625 7.31667 0 8.61667 0 10C0 11.3833 0.2625 12.6833 0.7875 13.9C1.3125 15.1167 2.025 16.175 2.925 17.075C3.825 17.975 4.88333 18.6875 6.1 19.2125C7.31667 19.7375 8.61667 20 10 20C11.3833 20 12.6833 19.7375 13.9 19.2125C15.1167 18.6875 16.175 17.975 17.075 17.075C17.975 16.175 18.6875 15.1167 19.2125 13.9C19.7375 12.6833 20 11.3833 20 10C20 8.61667 19.7375 7.31667 19.2125 6.1C18.6875 4.88333 17.975 3.825 17.075 2.925C16.175 2.025 15.1167 1.3125 13.9 0.7875C12.6833 0.262501 11.3833 0 10 0ZM9 2.05V4C8.45 4 7.97917 4.19583 7.5875 4.5875C7.19583 4.97917 7 5.45 7 6V7L2.2 11.8C2.15 11.5 2.10417 11.2 2.0625 10.9C2.02083 10.6 2 10.3 2 10C2 7.98333 2.6625 6.21667 3.9875 4.7C5.3125 3.18333 6.98333 2.3 9 2.05ZM15.9 4.6C16.5833 5.35 17.1042 6.1875 17.4625 7.1125C17.8208 8.0375 18 9 18 10C18 11.6333 17.5458 13.125 16.6375 14.475C15.7292 15.825 14.5167 16.8 13 17.4V17C13 16.45 12.8042 15.9792 12.4125 15.5875C12.0208 15.1958 11.55 15 11 15H9V13C9 12.7167 8.90417 12.4792 8.7125 12.2875C8.52083 12.0958 8.28333 12 8 12H6V10H12C12.2833 10 12.5208 9.90417 12.7125 9.7125C12.9042 9.52083 13 9.28333 13 9V6H14C14.4333 6 14.825 5.87083 15.175 5.6125C15.525 5.35417 15.7667 5.01667 15.9 4.6Z" fill="#41493F"/>
</svg>
